<svg width="1384" height="313" viewBox="0 0 1384 313" fill="none" xmlns="http://www.w3.org/2000/svg">
<path d="M105.27 71.8989C169.35 71.8989 199.097 120.936 199.097 183.709C199.097 261.516 159.541 306.634 103.307 306.634H0V71.9076H105.27V71.8989ZM48.0594 266.083H96.7676C129.136 266.083 149.074 236.007 149.074 186.97C149.074 142.509 135.347 112.433 97.0963 112.433H48.0594V266.083Z" fill="#252525" fill-opacity="0.2"/>
<path d="M353.707 274.257C353.707 291.254 357.306 297.145 363.845 299.757V306.625H314.479C312.187 299.757 310.552 293.546 310.232 286.029C293.564 304.013 276.229 311.201 253.999 311.201C222.288 311.201 201.035 291.583 201.035 260.529C201.035 237.97 209.209 211.164 255.633 204.304L288.322 199.4C305.319 196.787 308.917 193.518 308.917 184.686C308.917 172.593 301.401 164.748 278.841 164.748C261.844 164.748 252.364 172.265 250.729 188.942H206.597C210.195 152.326 227.521 128.132 283.097 128.132C327.887 128.132 353.716 147.093 353.716 177.169V274.265L353.707 274.257ZM308.917 243.532V221.959C301.072 226.863 293.884 229.147 276.229 231.768C257.926 234.38 246.81 240.92 246.81 257.597C246.81 270.347 255.313 278.521 268.064 278.521C288.33 278.521 308.926 264.794 308.926 243.541L308.917 243.532Z" fill="#252525" fill-opacity="0.2"/>
<path d="M516.829 155.916C528.922 137.284 543.964 128.124 563.253 128.124C600.846 128.124 623.734 152.647 623.734 185.335V306.625H577.967V199.72C577.967 176.183 567.18 166.703 552.796 166.703C529.588 166.703 522.062 182.723 522.062 202.012V306.625H476.295V198.742C476.295 174.877 467.143 166.703 448.831 166.703C429.542 166.703 420.39 179.453 420.39 199.391V306.617H374.623V132.691H418.426V158.191H419.084C429.542 137.596 446.548 128.115 468.449 128.115C490.351 128.115 503.759 133.997 516.837 155.908L516.829 155.916Z" fill="#252525" fill-opacity="0.2"/>
<path d="M693.029 132.7V306.625H647.262V132.7H693.029Z" fill="#252525" fill-opacity="0.2"/>
<path d="M905.854 148.72C898.986 118.972 879.696 108.186 854.854 108.186C819.216 108.186 795.679 136.627 795.679 189.911C795.679 238.299 816.275 270.33 853.867 270.33C881.331 270.33 899.635 254.968 905.845 226.198H954.882C944.096 282.423 906.494 312.827 852.881 312.827C786.847 312.827 745.656 265.754 745.656 189.582C745.656 113.41 789.46 65.6797 853.867 65.6797C910.75 65.6797 950.306 100.989 954.882 148.72H905.845H905.854Z" fill="#252525" fill-opacity="0.2"/>
<path d="M1014.71 0V155.259H1015.36C1023.21 138.262 1043.8 128.124 1065.71 128.124C1101.99 128.124 1126.19 151.332 1126.19 185.006V306.617H1080.42V197.748C1080.42 176.823 1070.29 166.694 1050.67 166.694C1029.75 166.694 1014.71 181.079 1014.71 205.593V306.608H968.947V0H1014.71H1014.71Z" fill="#252525" fill-opacity="0.2"/>
<path d="M1316.76 219.667C1316.76 276.549 1280.48 311.201 1227.84 311.201C1175.21 311.201 1138.92 276.549 1138.92 219.667C1138.92 162.784 1176.19 128.132 1227.84 128.132C1279.49 128.132 1316.76 162.784 1316.76 219.667ZM1227.84 272.622C1256.28 272.622 1269.69 252.684 1269.69 219.658C1269.69 186.632 1255.96 166.694 1227.51 166.694C1201.04 166.694 1185.99 185.655 1185.99 219.658C1185.99 253.661 1200.05 272.622 1227.84 272.622Z" fill="#252525" fill-opacity="0.2"/>
<path d="M1376.25 132.7V306.625H1330.48V132.7H1376.25Z" fill="#252525" fill-opacity="0.2"/>
<path d="M678.385 68.7692L681.378 77.9815H691.066C699.975 77.9815 703.678 89.3822 696.472 94.6154L688.635 100.307L691.628 109.519C694.379 117.988 684.682 125.029 677.477 119.796L669.64 114.104L661.803 119.796C654.598 125.029 644.901 117.988 647.652 109.519L650.645 100.307L642.808 94.6154C635.602 89.3822 639.304 77.9815 648.214 77.9815H657.902L660.895 68.7692C663.645 60.3009 675.626 60.3009 678.385 68.7692Z" fill="#252525" fill-opacity="0.2"/>
<path d="M1362.38 68.7692L1365.38 77.9815H1375.07C1383.98 77.9815 1387.68 89.3822 1380.47 94.6154L1372.64 100.307L1375.63 109.519C1378.38 117.988 1368.68 125.029 1361.48 119.796L1353.64 114.104L1345.8 119.796C1338.6 125.029 1328.9 117.988 1331.65 109.519L1334.64 100.307L1326.81 94.6154C1319.6 89.3822 1323.3 77.9815 1332.21 77.9815H1341.9L1344.89 68.7692C1347.65 60.3009 1359.63 60.3009 1362.38 68.7692Z" fill="#252525" fill-opacity="0.2"/>
</svg>
