<svg width="111" height="10" viewBox="0 0 111 10" fill="none" xmlns="http://www.w3.org/2000/svg">
<path d="M0.789383 6.0197C1.41201 5.75332 2.23521 5.5645 2.87297 5.46186C3.07304 5.42938 3.00246 5.55976 3.14014 5.54267C3.41432 5.50794 3.63659 5.39231 3.90586 5.3696C3.99372 5.36301 3.93399 5.55338 4.02524 5.54276C4.53255 5.4815 4.97509 5.32018 5.47583 5.2274C7.93258 4.77513 10.3247 4.2829 12.7858 3.81185C13.6046 3.65494 14.6065 3.59171 15.4316 3.34597C15.5264 3.31745 15.4378 3.18573 15.4536 3.1699C15.7038 2.92588 15.6702 3.23748 15.8689 3.2353C15.9686 3.23407 16.0697 3.23027 16.1718 3.2241C16.8741 3.18235 17.6001 3.04261 18.233 2.87345C18.5405 2.79101 18.1734 2.56147 18.5193 2.66454C18.5433 2.67142 18.4919 2.84004 18.5811 2.84059C18.783 2.84148 19.1436 2.74828 19.2987 2.73365C19.5921 2.70712 19.6388 2.69745 19.9152 2.65192C20.2898 2.59177 20.7507 2.59444 21.1468 2.49527C21.2318 2.47355 21.0921 2.33334 21.2257 2.2844C21.3615 2.23506 21.7231 2.1923 21.853 2.21069C21.982 2.22915 21.9487 2.36188 21.9748 2.38711C22.1914 2.60055 22.5578 2.20389 22.6123 2.18749C23.5792 1.90032 24.4533 1.97424 25.3803 1.85272C26.0857 1.75993 26.8289 1.60401 27.502 1.53322C28.3045 1.44952 28.9878 1.46034 29.7651 1.36183C29.8465 1.3517 29.7308 1.17435 29.8303 1.16161C30.8924 1.02612 31.9534 0.941297 33.0249 0.969476C33.1328 0.972444 33.011 1.15012 33.1191 1.16301C33.7799 1.23789 34.8381 1.47353 35.1611 0.722777C35.6056 0.713292 36.1411 0.698572 36.5486 0.811962C36.8095 0.88509 36.5774 1.08448 36.8829 0.98312C36.9519 0.960491 36.848 0.810127 36.9525 0.788112C37.394 0.695469 37.8815 0.709971 38.3172 0.596044C38.4052 0.572545 38.3705 0.433118 38.3939 0.405829C38.5916 0.184216 38.9718 0.499177 39.051 0.518447C39.6526 0.661178 40.0787 0.559103 40.627 0.527318C40.7546 0.520036 40.5914 0.340176 40.7137 0.326361C40.8051 0.316419 40.8971 0.307384 40.9896 0.299338C41.5377 0.251583 42.1004 0.239772 42.6386 0.281447C42.7786 0.29274 42.66 0.461763 42.7274 0.475445C43.0238 0.533944 43.071 0.224875 43.3552 0.275743C43.4151 0.286098 43.3892 0.426388 43.4008 0.44102C43.5821 0.670773 43.7111 0.3248 43.7542 0.315075C44.297 0.184744 44.6665 0.521009 45.1931 0.446926C45.2563 0.437725 45.1052 0.26884 45.2834 0.253713C46.4695 0.152007 47.7296 0.154555 48.9097 0.261885C49.0932 0.278346 48.9663 0.413784 48.9783 0.429706C49.1727 0.678322 49.2849 0.335023 49.3444 0.320639C49.8112 0.216098 50.2589 0.491418 50.5688 0.0796721C52.564 0.178934 54.5495 -0.0633074 56.5232 0.309721C56.5483 0.314054 56.5025 0.481392 56.5525 0.489316C57.1551 0.586889 57.0409 0.325927 57.4427 0.0107137C57.5441 -0.0684262 57.8467 0.319198 57.8734 0.347718C57.971 0.452655 57.8659 0.70083 57.8987 0.721303C58.1704 0.882332 58.1344 0.0572999 58.5035 0.0618172C58.515 0.0633448 58.4646 0.214438 58.4953 0.229935C58.5908 0.278579 58.687 0.219611 58.7804 0.273206C58.9944 0.397249 59.0644 0.798884 59.3961 0.571276C59.4383 0.541767 59.3825 0.0729211 59.7117 0.100949C59.8433 0.112382 60.4239 0.115964 60.5862 0.150019C60.7482 0.183866 60.6332 0.332071 60.6446 0.338849C61.0782 0.547958 60.9109 0.626839 61.1223 0.926953C61.3335 1.2261 61.2903 0.523837 61.3815 0.447838C61.4729 0.37203 61.7898 0.544789 61.8672 0.60412C61.9445 0.663425 61.8435 0.756476 61.9128 0.790731C62.371 1.01494 62.1262 0.448572 62.2824 0.341678C62.6506 0.088727 62.9182 0.617121 63.2454 0.67873C63.3342 0.695397 63.2653 0.574668 63.3451 0.566214C63.6613 0.534394 63.8463 0.703059 64.2098 0.567384C64.269 0.545256 64.5706 0.243609 64.7498 0.480109C64.7752 0.514189 64.6946 0.640719 64.8279 0.674921C65.0277 0.726206 65.3866 0.769004 65.6042 0.734823C65.7647 0.709506 65.5911 0.488514 65.7889 0.563262C65.8768 0.596648 65.7063 0.714363 65.8718 0.766692C66.0372 0.81893 66.4613 0.832258 66.6236 0.835463C66.7853 0.838483 66.7044 0.672667 66.7179 0.662367C66.7998 0.603532 67.1144 0.540175 67.1419 0.541728C68.5268 0.588203 69.7856 0.931547 71.1354 0.92549C71.2416 0.925287 71.1819 0.750444 71.1982 0.748656C71.5647 0.700144 71.2508 1.13515 71.4929 1.30287C71.4787 0.954746 71.6232 1.02678 71.8801 1.00549C72.004 0.994971 71.946 0.856711 71.9581 0.843737C72.1535 0.652341 72.2632 0.923508 72.2922 0.979415C72.3189 1.03061 72.3481 1.05515 72.378 1.06526C72.4678 1.09573 72.5642 0.994724 72.619 1.09813C72.6918 1.23482 72.4904 1.41632 72.7341 1.43049C72.811 1.31144 72.6521 0.975603 72.8409 0.935924C73.5552 0.785186 74.8409 1.13538 75.4003 1.20601C75.9587 1.27602 76.1414 1.26794 76.4643 1.33898C77.0473 1.46783 76.8509 1.21053 77.2263 1.13118C77.6029 1.05219 77.3748 1.62696 77.4169 1.75814C77.458 1.88919 77.5255 1.76352 77.5839 1.83861C77.6421 1.91366 77.4961 1.98811 77.6446 2.02701C77.7933 2.06585 78.2253 1.87592 78.2903 1.74809C78.4277 1.47718 78.2672 1.16628 78.658 1.30467C78.6805 1.31282 78.5924 1.4613 78.679 1.48467C79.3681 1.66525 80.0938 1.73842 80.7809 1.90896C80.8753 1.93264 80.7736 2.09699 80.8283 2.11273C81.3999 2.27757 81.2192 1.9675 81.5687 1.67498C81.4565 2.09776 81.6068 2.37702 82.0475 2.42211C82.3128 2.44947 82.2852 2.2575 82.4696 2.14202C82.525 2.10718 82.6998 2.25431 82.7423 2.16945C82.8829 1.8922 82.737 1.55185 83.1802 1.72545C83.1996 1.73354 83.1202 1.88502 83.1884 1.90144C83.629 2.00844 83.7112 1.71212 84.1972 1.72447C84.5797 1.73425 85.2306 1.98712 85.6585 2.06232C85.5995 2.54386 86.0142 2.47578 86.2154 2.16084C86.4941 2.20417 86.7972 2.21761 87.0605 2.29253C87.151 2.31816 87.0753 2.45125 87.0853 2.46759C87.2399 2.72374 87.3965 2.41345 87.4581 2.40732C88.1226 2.3549 88.6287 2.6591 89.2767 2.48938C89.2998 2.48325 89.3737 2.15245 89.5128 2.41575C89.5216 2.43381 89.2987 2.56292 89.5904 2.6078C89.8801 2.65247 90.4143 2.89522 90.8364 2.78686C90.9375 2.76069 91.2194 2.51797 91.3949 2.75361C91.4182 2.78554 91.3778 2.87813 91.41 2.93603C91.5143 3.12072 91.6215 2.79034 91.733 3.09474C91.8423 3.39888 92.1245 3.65018 92.5555 3.50037C92.5691 3.49615 92.6976 3.23956 92.8247 3.25903C93.0303 3.29064 93.3172 3.38169 93.5304 3.40564C93.6327 3.41703 93.5874 3.24273 93.6055 3.24182C94.3083 3.23212 94.7848 3.44093 95.5113 3.59632C95.6472 3.62547 96.0675 3.44746 96.3039 3.65927C96.5667 3.89169 96.1715 4.67124 96.8563 4.56007C97.1261 4.51517 97.6075 3.52382 98.0126 4.12114C98.9584 4.1074 99.7868 4.4947 100.744 4.42847C100.786 4.42557 100.954 4.15394 101.055 4.1714C101.203 4.19753 101.265 4.34322 101.368 4.36596C101.645 4.43036 101.94 4.42768 102.208 4.43738C102.354 4.44354 102.496 4.45346 102.636 4.47861C102.795 4.50669 102.715 4.63796 102.91 4.67242C103.105 4.70671 103.247 4.53889 103.499 4.66381C103.69 4.75876 103.824 5.15979 104.083 5.24018C104.147 4.87154 104.314 4.90239 104.652 4.84974C104.715 4.83924 104.668 4.70129 104.699 4.68967C104.825 4.63953 104.914 4.76097 105.04 4.70481C105.069 4.69129 105.088 4.56504 105.114 4.54684C105.326 4.38675 105.599 4.71558 105.644 4.77245C105.813 4.98833 105.944 4.83939 106.085 4.93515C106.227 5.03117 105.984 5.09057 106.159 5.16159C106.523 5.30893 107.012 5.3599 107.394 5.42355C107.544 5.44779 107.467 5.2638 107.489 5.26333C107.813 5.26856 108.107 5.49789 108.333 5.19002C108.416 6.09222 108.535 5.13528 108.962 5.38389C108.995 5.40397 108.972 5.82089 108.825 5.85811C108.683 5.89627 108.491 5.73344 108.292 5.79803C108.24 5.81225 107.929 6.15718 107.887 6.17457C107.591 6.3149 107.641 5.69539 107.634 5.6597C107.524 5.27094 107.146 5.63794 107.06 5.65442C106.657 5.72859 106.36 5.59708 106.023 5.64426C105.812 5.67571 105.73 6.07449 105.569 6.03888C105.035 5.92144 104.925 5.33376 104.347 5.74948C104.22 5.83766 104.273 6.29317 103.929 5.89319C103.906 5.86775 103.66 5.51136 103.465 5.68862C103.44 5.71096 103.423 5.83927 103.394 5.8462C103.192 5.88958 103.089 5.77141 102.878 5.79251C102.662 5.813 102.417 5.85404 102.187 5.77869C102.139 5.76308 102.089 5.72131 102.042 5.6705C101.958 5.5751 101.882 5.44734 101.844 5.40321C101.68 5.20959 101.43 5.45742 101.346 5.23843C101.256 5.01765 101.528 4.73675 101.237 4.56305C101.181 4.89481 101.109 5.23339 101.046 5.56612C100.367 5.46377 99.7122 5.26777 99.0299 5.19396C98.9452 5.18513 99.0083 5.37563 98.9168 5.37078C98.5237 5.34867 98.2182 5.17927 97.8074 5.17834C97.5018 5.1799 97.1325 5.32579 96.8098 5.33354C96.6655 4.9274 96.1656 4.99605 95.8286 4.91858C95.7089 4.8914 95.7297 4.79043 95.6473 4.74638C95.3349 4.58258 95.4463 4.93908 95.3497 4.981C94.9426 5.16068 95.005 4.3929 94.5471 4.35585C94.5235 4.35369 94.1836 4.72541 94.1401 4.74587C93.8645 4.8801 94.1153 4.59898 93.9587 4.54939C93.6704 4.45857 93.4819 4.33708 93.1245 4.41515C93.0211 4.43858 92.7459 4.66312 92.5783 4.444C92.556 4.41526 92.586 4.28229 92.5665 4.27197C92.2115 4.09646 92.1508 4.51837 91.9204 4.63645C91.6878 4.75425 91.3988 4.4243 91.3406 4.33217C91.1911 4.09394 91.4856 4.25475 91.4973 4.23448C91.638 3.99311 91.3942 4.00893 91.2129 3.96603C91.2348 3.54799 90.974 3.54293 91.0245 3.92323C91.0305 3.96481 91.1783 3.94278 91.2129 3.96603C91.0036 4.35429 90.7166 4.3738 90.4505 3.95764C90.3252 3.76256 90.4879 3.57044 90.0344 3.59564C89.8288 3.60699 89.8749 3.90175 89.6895 3.95959C89.2661 4.09153 88.7685 3.76565 88.3473 3.76152C88.1939 3.75996 88.3244 3.93283 88.2189 3.93717C87.9374 3.94901 87.711 3.80528 87.4282 3.83532C87.4026 3.83825 87.4458 4.00876 87.3598 4.0015C86.7057 3.94955 86.151 3.784 85.4742 3.71004C85.1457 3.67416 84.5506 3.70397 84.2123 3.65118C83.6259 3.56039 82.9239 3.24956 82.416 3.25854C82.084 3.2636 82.14 3.43475 81.9884 3.5329C81.695 3.72319 81.2538 3.28941 81.1941 3.22316C81.1924 3.22096 81.4786 3.20912 81.3358 3.11055C81.2648 2.92667 81.1974 3.2227 81.1941 3.22316C81.1554 3.1802 80.5935 3.08985 80.479 3.11099C80.4165 3.1225 80.4361 3.28118 80.4038 3.28424C79.636 3.35347 78.8769 3.32523 78.1183 3.18637C78.1051 3.18206 78.1404 3.00975 78.1092 3.0018C77.6723 2.88616 77.3702 3.07517 76.9944 3.17121C76.6186 3.26725 76.3327 3.20143 76.1403 2.88505C75.8615 2.90045 75.4764 2.73708 75.2545 2.63921C75.0328 2.54133 74.9749 2.87805 74.9544 2.88321C74.3138 3.0501 73.9666 2.82914 73.321 2.75269C73.0682 2.7223 72.6078 2.72145 72.2661 2.73074C72.1915 2.73272 72.1226 2.73515 72.0626 2.7378C71.7965 2.75016 71.6428 2.66028 71.3969 2.69557C71.3637 2.70026 71.3871 2.8535 71.3767 2.85867C71.0948 3.02223 71.2483 2.6611 71.1964 2.59155C71.0081 2.33877 70.8898 2.20297 70.5353 2.29467C70.4532 2.3156 70.1891 2.83368 70.0407 2.85616C69.8483 2.88445 69.9312 2.69791 69.7295 2.73255C69.7123 2.73535 69.709 2.8532 69.5867 2.84097C69.0203 2.78581 68.4019 2.68361 67.8095 2.66546C67.7285 2.66253 67.8228 2.85448 67.7057 2.85334C67.1575 2.8479 66.5563 2.81271 66.0279 2.70202C65.8971 2.67416 65.9854 2.54699 65.9585 2.50691C65.7929 2.26428 65.5296 2.5952 65.4885 2.60002C64.5053 2.72368 63.7672 2.38728 62.7659 2.50329C62.711 2.51016 62.2829 2.86375 62.1062 2.54458C62.0943 2.52332 61.9187 2.19683 61.7493 2.41214C61.7388 2.42562 61.8493 2.59408 61.6491 2.57189C61.4487 2.54973 61.1249 2.6521 60.8531 2.46398C60.7672 2.4047 60.5674 2.0794 60.3018 2.32949C60.2842 2.3469 59.8721 2.9166 59.7358 2.51537C59.7139 2.44935 59.7457 2.02778 59.431 2.23862C59.3709 2.27953 59.477 2.37547 59.3198 2.43157C59.0795 2.51809 58.7629 2.40019 58.4661 2.58424C58.4143 2.61681 58.1927 2.90036 58.0206 2.68103C57.9935 2.64667 58.0473 2.50641 57.9547 2.4896C57.5141 2.40905 57.0542 2.49943 56.6067 2.39954C56.4485 2.36446 56.5307 2.13714 56.3658 2.07535C56.2013 2.01356 55.8677 1.95386 55.6944 2.05772C55.5213 2.16161 55.7096 2.52472 55.451 2.55356C54.3269 2.67915 53.2127 2.47374 52.089 2.45851C51.9222 2.45627 52.0622 2.58406 51.8168 2.59024C50.9122 2.61251 49.3557 2.7705 48.5631 2.5195C47.9267 2.3179 48.7145 2.12524 48.2297 2.05029C47.9955 2.01471 47.7586 2.44488 47.7033 2.46007C47.1607 2.61364 46.7753 2.44112 46.2842 2.51831C46.183 2.53433 46.2896 2.70115 46.2035 2.71291C45.9096 2.75462 45.5966 2.6917 45.3147 2.7184C45.1885 2.73078 45.2177 2.86021 45.101 2.85548C44.8222 2.84571 44.5727 2.80273 44.2951 2.69398C44.2698 2.68408 44.4287 2.51345 44.2222 2.51772C43.8888 2.52508 43.4663 2.42633 43.0899 2.57219C42.9782 2.61601 42.9907 2.91421 42.7339 2.72236C42.6801 2.68234 42.7248 2.32058 42.4575 2.64642C42.4122 2.70052 41.9596 3.14599 41.7079 2.892C41.6416 2.82511 41.4649 2.54227 41.3309 2.59704C41.3129 2.60557 41.3973 2.76083 41.2851 2.7837C41.2411 2.79236 41.1968 2.80019 41.1523 2.80738C40.7934 2.86501 40.4225 2.88114 40.0589 2.95076C39.9498 2.972 40.1249 3.12631 39.9621 3.15268C39.5156 3.22536 38.9497 3.2233 38.5075 3.20385C38.3437 3.19642 38.4458 3.05106 38.4329 3.03701C38.2245 2.80844 38.1365 3.14438 38.075 3.16819C37.6927 3.31193 37.382 3.18116 37.0244 3.25024C36.9258 3.2689 37.0087 3.41944 36.99 3.43492C36.7957 3.58714 36.9262 3.29471 36.794 3.27412C36.4213 3.21572 36.0177 3.2613 35.6498 3.31222C35.5148 3.33115 35.6823 3.49928 35.5612 3.51419C34.8476 3.6056 34.0968 3.65447 33.3887 3.61955C33.2556 3.61264 33.3253 3.46576 33.295 3.43651C33.0836 3.23173 32.8341 3.56141 32.7732 3.59639C32.4964 3.75591 32.3711 3.64382 32.1166 3.69187C30.8752 3.92809 29.3254 4.01132 28.1402 4.09934C26.599 4.21439 25.3894 4.23506 23.9387 4.47423C23.847 4.48927 23.966 4.66025 23.8871 4.67561C22.8642 4.86629 21.8421 4.94875 20.8266 5.17201C20.7432 5.19002 20.8931 5.34378 20.7607 5.37853C20.4919 5.45057 20.1365 5.50174 19.8518 5.49474C19.7112 5.49197 19.868 5.31069 19.7259 5.31117C19.395 5.31206 19.0537 5.36131 18.7317 5.45044C18.5958 5.48859 18.8373 5.62668 18.6586 5.66243C18.0239 5.79165 17.4007 5.92917 16.7731 6.04038C16.1675 6.14851 15.562 6.22687 14.9409 6.24721C14.8515 6.25031 14.6955 5.90923 14.5271 6.01807C14.5351 6.12045 14.5615 6.23716 14.5788 6.34467C12.7983 6.79519 10.9783 7.07747 9.18223 7.48773C9.10674 7.50504 9.28196 7.66269 9.13643 7.69708C8.28863 7.8979 7.48361 8.1517 6.57756 8.18449C6.48631 8.18845 6.44375 7.84649 6.20494 7.96151C6.16521 7.98137 5.79435 8.12503 5.71708 8.22225C5.70687 8.23651 5.81536 8.37281 5.69651 8.40894C5.00156 8.61726 4.24627 8.78617 3.5337 8.89248C3.41533 8.91035 3.48922 8.71185 3.40412 8.7233C2.80995 8.80333 2.24082 9.1139 1.67904 9.14534C1.30345 9.16725 1.33371 8.84565 1.04678 8.64337C1.0065 8.61431 0.7909 8.69126 0.720026 8.53929C0.531977 8.15925 0.467589 7.68639 0.25581 7.28582C0.213923 7.19643 -0.0832322 7.43516 0.0227139 7.13581C0.0317801 7.11407 0.247265 6.94362 0.277452 6.84781C0.298347 6.78099 0.163529 6.64933 0.222716 6.55154C0.286397 6.45235 0.423204 6.55441 0.537914 6.42571C0.644247 6.29948 0.523957 6.13454 0.789383 6.0197ZM74.2551 2.2027C74.0556 2.02418 73.9806 2.61847 74.2195 2.49262C74.2312 2.48583 74.2654 2.2115 74.2551 2.2027ZM99.7763 4.82146C99.5353 4.52374 99.2914 4.88319 99.4626 5.11106C99.6329 5.3386 99.8494 4.91173 99.7763 4.82146ZM102.652 5.01061C102.362 4.76147 102.197 5.5952 102.562 5.47143C102.583 5.46449 102.669 5.02508 102.652 5.01061ZM1.89521 8.26241C1.88899 8.25597 1.72799 8.3007 1.72779 8.30918C1.70398 8.51699 2.02277 8.42834 1.89521 8.26241ZM105.509 5.19423C105.424 5.06616 105.117 5.15668 105.221 5.31539C105.304 5.44299 105.615 5.3534 105.509 5.19423ZM63.2448 0.970856C63.2418 0.961831 63.1192 0.949833 63.1201 1.00028C63.1232 1.16274 63.2954 1.12252 63.2448 0.970856ZM110.292 5.94622C109.598 5.78226 109.288 5.01718 110.048 5.23526C110.185 5.27522 109.706 5.39952 109.872 5.49435C110.175 5.66694 110.473 5.27711 110.757 5.5691C110.81 5.62288 110.332 5.95742 110.291 5.94694C110.291 5.9467 110.292 5.94646 110.292 5.94622ZM74.1862 1.47714C74.1825 1.46893 74.013 1.44896 74.0084 1.45649C73.9025 1.63914 74.2437 1.67945 74.1862 1.47714ZM56.0664 0.471429C56.0569 0.454464 55.6604 0.437811 55.6476 0.453406C55.4406 0.763504 56.241 0.798029 56.0664 0.471429ZM85.6639 2.0759C85.8693 1.90533 86.0909 1.90612 86.2146 2.16051C86.0307 2.12819 85.8479 2.10702 85.6639 2.0759Z" fill="#4261FF"/>
</svg>
