<svg width="318" height="25" viewBox="0 0 318 25" fill="none" xmlns="http://www.w3.org/2000/svg">
<path d="M2.81357 15.7654C4.57598 15.4762 6.91972 15.4086 8.70774 15.4465C9.27111 15.4575 9.01631 15.7454 9.40114 15.7654C10.1481 15.8048 10.8515 15.6145 11.5939 15.6753C11.8437 15.6964 11.572 16.1405 11.8336 16.1531C13.2605 16.2195 14.5804 16.0035 16.0228 15.9764C23.1141 15.8455 30.0117 15.4971 37.1495 15.1858C39.4999 15.083 42.3743 15.2658 44.7948 14.9335C45.0729 14.8947 44.8812 14.5384 44.9323 14.5045C45.739 13.9834 45.5111 14.7446 46.071 14.8055C48.3012 15.0449 50.7407 14.9149 52.8161 14.634C53.7152 14.5124 52.7585 13.8425 53.7002 14.1916C53.7658 14.2151 53.5605 14.6209 53.8133 14.6459C54.4091 14.7004 55.41 14.5639 55.8516 14.5658C56.6862 14.5725 56.825 14.5594 57.6253 14.5111C58.7187 14.4486 59.9641 14.5618 61.1367 14.3964C61.3853 14.36 61.0279 13.9814 61.4227 13.8872C61.8317 13.7921 62.8498 13.7599 63.2048 13.8316C63.5584 13.9034 63.431 14.2276 63.4973 14.2958C64.0413 14.8716 65.1987 13.95 65.3563 13.9188C68.1424 13.3817 70.6336 13.7039 73.2527 13.5353C75.3169 13.4014 77.3747 13.1115 79.3368 13.0092C79.573 12.997 79.8064 12.9871 80.0377 12.9787C81.9804 12.9113 83.8039 12.9689 85.7831 12.8111C86.0135 12.7932 85.7137 12.3394 85.9952 12.3165C89.0127 12.0724 92.0222 11.9362 95.0921 12.0646C95.4017 12.0778 95.0308 12.5157 95.3418 12.5536C97.208 12.7787 100.176 13.4142 101.195 11.5449C102.45 11.5379 103.957 11.5179 105.112 11.8109C105.855 11.9996 105.174 12.4935 106.059 12.2461C106.259 12.1909 105.971 11.8127 106.273 11.7597C107.568 11.5351 108.907 11.5815 110.156 11.3004C110.408 11.2424 110.317 10.8933 110.385 10.8252C110.96 10.2727 112.031 11.0622 112.258 11.1104C114.003 11.4668 115.158 11.2138 116.734 11.1289C117.097 11.1095 116.639 10.6611 116.988 10.6254C118.808 10.4459 120.682 10.3726 122.458 10.4759C122.855 10.4999 122.517 10.9262 122.708 10.9584C123.55 11.0952 123.689 10.3203 124.501 10.4365C124.672 10.46 124.598 10.8119 124.631 10.8481C125.15 11.4154 125.52 10.5443 125.644 10.518C127.192 10.1679 128.22 10.9914 129.724 10.7747C129.904 10.7479 129.47 10.3347 129.977 10.2861C133.396 9.95728 136.909 9.86541 140.302 10.0121C140.821 10.0348 140.473 10.386 140.508 10.4246C141.075 11.0264 141.367 10.1566 141.533 10.1144C142.85 9.80389 144.146 10.4403 145 9.3739C150.673 9.38404 156.274 8.47739 161.958 9.04578C162.03 9.05202 161.928 9.47782 162.071 9.48847C163.791 9.62092 163.425 8.99062 164.512 8.12778C164.786 7.91106 165.715 8.81849 165.797 8.8842C166.094 9.12656 165.839 9.76618 165.936 9.81073C166.74 10.1582 166.489 8.10842 167.545 8.04454C167.578 8.04599 167.462 8.43299 167.553 8.46534C167.835 8.56708 168.101 8.40012 168.372 8.51471C168.998 8.77999 169.274 9.76679 170.169 9.12925C170.283 9.04667 170.032 7.89042 170.969 7.8897C171.342 7.89043 172.993 7.77159 173.463 7.81939C173.932 7.86719 173.636 8.26232 173.67 8.27663C174.951 8.69912 174.489 8.93359 175.161 9.63231C175.834 10.3282 175.555 8.58916 175.796 8.3788C176.037 8.169 176.969 8.52509 177.201 8.65438C177.433 8.78374 177.169 9.03935 177.372 9.10825C178.721 9.55716 177.899 8.20534 178.316 7.90173C179.302 7.18305 180.18 8.43263 181.132 8.50343C181.389 8.52252 181.163 8.23947 181.389 8.19826C182.281 8.03912 182.862 8.41069 183.849 7.97929C184.011 7.90891 184.785 7.07992 185.352 7.6206C185.433 7.69865 185.238 8.03474 185.623 8.08442C186.199 8.15915 187.232 8.16849 187.841 8.02374C188.29 7.91671 187.737 7.41501 188.319 7.54642C188.578 7.60516 188.125 7.9449 188.61 8.02926C189.091 8.11374 190.309 8.02747 190.773 7.98902C191.236 7.95038 190.957 7.56146 190.993 7.53197C191.207 7.36272 192.074 7.11553 192.152 7.11138C196.069 6.82854 199.764 7.2923 203.573 6.83958C203.874 6.80456 203.648 6.39035 203.693 6.38061C204.715 6.14072 203.968 7.32211 204.712 7.65846C204.556 6.79989 204.991 6.93117 205.715 6.79301C206.063 6.72573 205.852 6.40226 205.882 6.36607C206.373 5.82654 206.777 6.46177 206.876 6.59071C207.247 7.06476 207.584 6.45858 207.836 6.77518C208.088 7.08932 207.582 7.60729 208.274 7.5599C208.45 7.23879 207.888 6.46041 208.406 6.29803C210.357 5.68447 214.139 6.09684 215.739 6.06811C217.335 6.03946 217.849 5.95169 218.787 6.00831C220.483 6.11069 219.83 5.5471 220.862 5.21024C221.897 4.87318 221.473 6.38027 221.643 6.68877C221.811 6.99729 221.953 6.66102 222.148 6.8245C222.343 6.98798 221.957 7.22748 222.394 7.26728C222.835 7.3068 223.976 6.67263 224.109 6.33165C224.389 5.60929 223.815 4.90263 224.969 5.09447C225.036 5.10598 224.846 5.50689 225.099 5.53127C227.11 5.71209 229.189 5.60748 231.21 5.75309C231.487 5.77375 231.267 6.22028 231.428 6.23725C233.1 6.41545 232.465 5.72213 233.326 4.85916C233.186 5.94804 233.727 6.57709 234.989 6.50876C235.747 6.46805 235.589 6.00549 236.061 5.64496C236.202 5.53632 236.759 5.82741 236.843 5.60047C237.122 4.85846 236.566 4.07916 237.89 4.3242C237.948 4.33612 237.789 4.74266 237.989 4.75492C239.276 4.83611 239.389 4.07056 240.756 3.89779C241.828 3.7622 243.775 4.10975 245.012 4.11185C245.057 5.32402 246.205 4.97795 246.628 4.11526C247.432 4.10205 248.294 4.0037 249.068 4.07367C249.335 4.09735 249.182 4.45815 249.218 4.49404C249.765 5.05787 250.063 4.2253 250.234 4.18329C252.08 3.76355 253.639 4.289 255.391 3.58182C255.453 3.5564 255.506 2.70939 256.021 3.29515C256.054 3.33564 255.486 3.75318 256.329 3.73303C257.169 3.71314 258.771 4.07084 259.912 3.61236C260.188 3.50191 260.86 2.77713 261.464 3.2767C261.545 3.34462 261.475 3.59073 261.593 3.71844C261.974 4.12506 262.119 3.26359 262.58 3.96097C263.041 4.65831 263.944 5.14765 265.092 4.57985C265.129 4.56314 265.366 3.87309 265.735 3.86198C266.324 3.84483 267.168 3.93583 267.782 3.89513C268.077 3.8754 267.863 3.46819 267.914 3.45752C269.88 3.10616 271.314 3.39574 273.451 3.43191C273.844 3.43934 274.924 2.80311 275.703 3.20966C276.559 3.65459 275.83 5.75851 277.702 5.15701C278.457 4.91604 279.274 2.25314 280.734 3.5216C283.395 3.02883 285.894 3.57464 288.552 2.93852C288.671 2.91024 289.01 2.16052 289.294 2.15367C289.716 2.14491 289.967 2.47114 290.27 2.47577C291.538 2.50366 292.667 2.14525 293.883 2.11886C294.344 2.10812 294.204 2.46906 294.755 2.45628C295.305 2.4432 295.644 1.95882 296.401 2.13839C296.974 2.27557 297.592 3.18828 298.345 3.25446C298.319 2.31976 298.833 2.30871 299.731 2.0086C299.903 1.9505 299.696 1.63682 299.776 1.59258C300.103 1.40536 300.43 1.65612 300.739 1.45507C300.814 1.40672 300.799 1.08787 300.86 1.03037C301.372 0.529235 302.306 1.1934 302.466 1.30916C303.081 1.74849 303.33 1.3179 303.791 1.47797C304.252 1.63807 303.594 1.91099 304.125 1.99326C305.227 2.16329 306.623 2.0293 307.73 1.97866C308.172 1.9565 307.846 1.54894 307.909 1.53589C308.816 1.37412 309.762 1.77232 310.217 0.89527C310.978 3.04857 310.754 0.650387 312.083 1.01204C312.188 1.04145 312.379 2.06966 311.994 2.24498C311.609 2.42017 310.993 2.1316 310.46 2.40091C310.334 2.46418 309.65 3.47862 309.552 3.54338C308.788 4.04966 308.584 2.50826 308.537 2.42571C308.007 1.53625 307.161 2.63555 306.926 2.7219C305.853 3.11749 304.912 2.95454 304.012 3.24477C303.424 3.43275 303.425 4.45021 302.955 4.44684C301.389 4.43624 300.765 3.05362 299.366 4.3669C299.066 4.6471 299.445 5.7369 298.263 4.93212C298.189 4.88137 297.303 4.13364 296.848 4.66651C296.791 4.73368 296.812 5.05656 296.733 5.08843C296.206 5.29568 295.832 5.05952 295.254 5.21731C294.676 5.3751 293.983 5.60036 293.308 5.53022C292.902 5.48847 292.35 4.91716 292.149 4.78119C291.58 4.38887 291.038 5.11912 290.669 4.62517C290.298 4.12875 290.918 3.30498 290.004 3.02398C290.021 3.86509 289.995 4.7309 289.992 5.57796C288.032 5.66399 286.091 5.50622 284.135 5.65893C283.892 5.6787 284.167 6.11517 283.908 6.148C282.815 6.28443 281.833 6.01966 280.698 6.21521C279.819 6.36828 278.878 6.90314 277.962 7.07799C277.341 6.15106 275.991 6.55788 274.993 6.52878C274.643 6.51901 274.651 6.26118 274.399 6.19212C273.448 5.93778 273.935 6.76053 273.686 6.90922C272.616 7.54429 272.409 5.62923 271.112 5.7534C271.044 5.75933 270.263 6.83278 270.151 6.90336C269.44 7.36253 270.009 6.55421 269.544 6.50575C268.696 6.41713 268.098 6.2071 267.132 6.56509C266.85 6.67086 266.199 7.34962 265.614 6.88892C265.537 6.82862 265.557 6.48783 265.497 6.47149C264.408 6.20435 264.44 7.26944 263.849 7.66572C263.258 8.06196 262.269 7.38382 262.064 7.18363C261.529 6.6661 262.436 6.92697 262.46 6.87165C262.743 6.21361 262.059 6.3644 261.53 6.3415C261.392 5.30344 260.66 5.40951 260.981 6.32196C261.017 6.42155 261.421 6.30012 261.53 6.3415C261.128 7.39171 260.327 7.57051 259.378 6.66735C258.934 6.24401 259.298 5.69835 258.042 5.96436C257.472 6.08461 257.736 6.78934 257.24 7.01503C256.108 7.53008 254.548 6.95028 253.357 7.12661C252.924 7.19064 253.371 7.55853 253.076 7.61583C252.293 7.76913 251.581 7.5154 250.799 7.71321C250.728 7.73163 250.927 8.13262 250.682 8.1524C248.824 8.3102 247.178 8.14318 245.224 8.25144C244.28 8.30391 242.61 8.63037 241.634 8.64235C239.95 8.66514 237.818 8.19108 236.383 8.42189C235.445 8.57073 235.677 8.9699 235.29 9.27413C234.543 9.86364 233.109 8.97182 232.915 8.83206C232.909 8.82741 233.712 8.68252 233.268 8.49688C232.991 8.07168 232.924 8.82961 232.915 8.83206C232.787 8.74193 231.17 8.74398 230.848 8.84203C230.675 8.89541 230.796 9.27939 230.705 9.29985C228.551 9.77753 226.387 10.0052 224.188 9.95268C224.149 9.94709 224.181 9.50763 224.09 9.49993C222.817 9.38085 222.018 9.96347 220.988 10.3423C219.956 10.7212 219.118 10.6645 218.453 9.95283C217.668 10.094 216.516 9.83024 215.854 9.66803C215.192 9.50584 215.153 10.3599 215.096 10.3801C213.325 11.0242 212.257 10.6001 210.393 10.6349C209.506 10.65 207.77 10.8767 206.818 11.0264C206.061 11.1464 205.592 10.9747 204.9 11.1434C204.806 11.1661 204.924 11.5383 204.896 11.5545C204.143 12.053 204.463 11.1069 204.292 10.9515C203.673 10.3862 203.293 10.0881 202.314 10.4295C202.089 10.5078 201.499 11.8778 201.087 11.9804C200.55 12.1114 200.726 11.6224 200.165 11.7717C200.117 11.784 200.145 12.0775 199.794 12.0854C198.162 12.1259 196.35 12.062 194.659 12.1923C194.427 12.209 194.752 12.6579 194.418 12.6897C192.849 12.8386 191.143 12.9228 189.582 12.7967C189.2 12.7641 189.418 12.4233 189.33 12.3312C188.791 11.7744 188.127 12.6696 188.011 12.6929C185.228 13.27 183.052 12.6254 180.199 13.1644C180.044 13.1953 178.901 14.181 178.322 13.4288C178.282 13.3788 177.707 12.6082 177.275 13.1844C177.248 13.2204 177.601 13.6138 177.026 13.6059C176.454 13.5979 175.547 13.9289 174.722 13.5229C174.461 13.395 173.819 12.6304 173.109 13.313C173.062 13.3604 171.995 14.8716 171.525 13.9011C171.449 13.7413 171.455 12.6842 170.599 13.2772C170.436 13.392 170.758 13.6085 170.32 13.7819C169.646 14.049 168.738 13.8204 167.911 14.3407C167.767 14.4326 167.178 15.1851 166.641 14.6729C166.556 14.5927 166.686 14.2322 166.417 14.2088C165.137 14.0961 163.829 14.4105 162.539 14.2437C162.082 14.1853 162.279 13.6032 161.8 13.4791C161.325 13.3548 160.356 13.2659 159.872 13.5556C159.389 13.8454 159.988 14.7184 159.246 14.8357C156.025 15.3449 152.814 15.0047 149.576 15.1217C149.098 15.1388 149.513 15.4391 148.811 15.4875C146.255 15.6656 141.728 16.2436 139.467 15.6892C137.611 15.2478 139.879 14.6893 138.473 14.5489C137.796 14.4824 137.137 15.5791 136.978 15.622C135.425 16.0539 134.317 15.6529 132.923 15.8809C132.63 15.9285 132.945 16.3378 132.695 16.3735C131.842 16.4995 130.933 16.3635 130.123 16.4476C129.76 16.4863 129.847 16.8081 129.511 16.8033C128.708 16.7954 127.995 16.7011 127.204 16.4426C127.132 16.419 127.582 15.9847 126.995 16.0053C126.051 16.0392 124.809 15.8123 123.727 16.1905C123.405 16.3041 123.437 17.0498 122.703 16.5781C122.55 16.4796 122.682 15.5737 121.914 16.3963C121.781 16.5333 120.49 17.6584 119.769 17.0279C119.577 16.862 119.072 16.1581 118.683 16.2974C118.63 16.319 118.87 16.706 118.543 16.7651C117.393 16.9664 116.186 16.9973 115.023 17.1942C114.713 17.2476 115.204 17.6332 114.741 17.6995C113.488 17.8812 111.811 17.878 110.551 17.8253C110.083 17.8052 110.384 17.4425 110.348 17.4073C109.766 16.8335 109.497 17.6726 109.32 17.7314C108.225 18.0859 107.348 17.7534 106.301 17.92C106.014 17.9649 106.243 18.343 106.188 18.3814C105.614 18.7584 106.014 18.0294 105.633 17.9752C104.566 17.8211 103.405 17.9242 102.363 18.0386C101.981 18.0812 102.44 18.5076 102.096 18.5406C100.005 18.748 97.8631 18.8371 95.8462 18.7116C95.4573 18.6877 95.6784 18.3237 95.5931 18.2491C95.004 17.726 94.2458 18.5365 94.0658 18.6204C93.2468 19.0033 92.9039 18.7149 92.1744 18.8182C88.5924 19.329 84.0809 19.4067 80.7139 19.4928C80.6253 19.4951 80.5373 19.4973 80.4498 19.4994C76.0621 19.6105 72.7399 19.5042 68.5514 19.8587C68.2837 19.881 68.5837 20.3276 68.3536 20.3527C65.3976 20.6556 62.4105 20.6676 59.4258 20.9981C59.1839 21.0242 59.5621 21.4411 59.1754 21.4978C58.4057 21.6155 57.3183 21.6632 56.5027 21.576C56.1001 21.5347 56.609 21.122 56.2046 21.0881C55.2716 21.0077 54.2667 21.0429 53.2964 21.1784C52.8877 21.2368 53.5369 21.6453 53.0042 21.6861C49.3896 21.9721 45.8546 22.2892 42.1394 21.9607C41.8848 21.9381 41.6247 21.0377 41.0886 21.251C41.0652 21.5075 41.0881 21.8057 41.089 22.0781C35.8047 22.5918 30.5823 22.6465 25.3009 22.9954C25.0764 23.0104 25.5001 23.4652 25.0666 23.4966C22.5749 23.6778 20.1706 23.999 17.582 23.7223C17.3242 23.6957 17.3814 22.8341 16.6522 23.0226C16.5345 23.0556 15.4015 23.2619 15.1334 23.47C15.0968 23.5011 15.3317 23.8818 14.975 23.9227C12.8787 24.1554 10.6739 24.2505 8.55923 24.19C8.21331 24.1799 8.5411 23.7252 8.29453 23.7144C6.56627 23.6386 4.73315 24.1258 3.06291 23.889C1.94166 23.7293 2.28305 22.9618 1.63671 22.2948C1.54482 22.2007 0.864384 22.2459 0.791627 21.8305C0.606527 20.7861 0.831259 19.604 0.595116 18.4942C0.544687 18.2552 -0.340325 18.5974 0.144864 17.9649C0.178846 17.9225 0.820331 17.6692 0.965223 17.4564C1.06609 17.3092 0.823639 16.902 1.03888 16.7058C1.25432 16.5098 1.53819 16.8439 1.90273 16.6034C2.26596 16.3605 2.05846 15.891 2.81357 15.7654ZM212.854 8.94551C212.223 8.57392 212.222 10.0721 212.857 9.67597C212.888 9.65505 212.886 8.96364 212.854 8.94551ZM286.037 4.37945C285.208 3.76765 284.724 4.76776 285.312 5.24339C285.899 5.71848 286.29 4.56484 286.037 4.37945ZM294.211 3.41468C293.256 2.95002 293.236 5.07555 294.2 4.58922C294.256 4.56164 294.266 3.44163 294.211 3.41468ZM4.31873 21.8474C4.31082 21.8281 3.81699 21.8529 3.8078 21.8735C3.58948 22.3699 4.57189 22.3205 4.31873 21.8474ZM302.319 2.41105C302.014 2.1417 301.203 2.52125 301.582 2.85621C301.887 3.12567 302.699 2.74608 302.319 2.41105ZM181.201 9.23059C181.19 9.20892 180.837 9.20989 180.851 9.33521C180.899 9.73879 181.382 9.59525 181.201 9.23059ZM316.151 1.57057C314.101 1.61153 312.759 -0.064078 314.997 0.00191045C315.402 0.0138247 314.161 0.610825 314.683 0.738207C315.639 0.970037 316.198 -0.164738 317.191 0.367065C317.371 0.464516 316.268 1.57212 316.147 1.57322C316.148 1.57234 316.15 1.57145 316.151 1.57057ZM212.398 7.17314C212.385 7.15412 211.897 7.16429 211.887 7.18454C211.652 7.67412 212.634 7.65392 212.398 7.17314ZM160.693 9.53136C160.663 9.49094 159.525 9.51975 159.491 9.56071C158.945 10.3712 161.245 10.3153 160.693 9.53136ZM245.033 4.143C245.535 3.63483 246.167 3.54112 246.626 4.1148C246.096 4.11425 245.565 4.14098 245.033 4.143Z" fill="#4261FF"/>
</svg>
