<svg width="149" height="20" viewBox="0 0 149 20" fill="none" xmlns="http://www.w3.org/2000/svg">
<path d="M0.864412 16.9326C1.65157 16.4434 2.72606 15.9988 3.55452 15.7139C3.8079 15.6271 3.72684 15.7791 3.90788 15.7222C4.25901 15.6126 4.54701 15.4317 4.90313 15.3338C5.01681 15.3039 4.94882 15.5151 5.0668 15.48C5.72275 15.2831 6.30959 14.9961 6.9557 14.7748C8.3806 14.2869 9.78701 13.8073 11.2064 13.3237C12.9895 12.7179 14.7835 12.1702 16.6054 11.6476C17.6889 11.3367 19.0421 11.0917 20.1386 10.7052C20.2664 10.6599 20.1479 10.5407 20.1693 10.5219C20.5071 10.2308 20.4602 10.554 20.7269 10.5186C21.7737 10.3805 22.8974 10.0806 23.8566 9.75906C24.2611 9.62291 23.7713 9.4532 24.2296 9.49849C24.2614 9.50134 24.1978 9.68089 24.3154 9.66617C24.5818 9.63245 25.065 9.47281 25.2657 9.43178C25.6554 9.35262 25.72 9.33375 26.0844 9.23843C26.5794 9.11051 27.1945 9.02869 27.7171 8.85553C27.8291 8.81798 27.6375 8.70215 27.8126 8.62823C27.9886 8.55406 28.4729 8.44239 28.6444 8.43721C28.8162 8.43192 28.7787 8.57189 28.8146 8.59246C29.1119 8.76758 29.5854 8.29727 29.6545 8.27106C30.9277 7.79868 32.0962 7.70448 33.3254 7.40089C34.259 7.16994 35.2422 6.86576 36.1338 6.66098C37.1964 6.41763 38.1141 6.29011 39.1421 6.03502C39.2505 6.00832 39.0802 5.85427 39.2126 5.8213C40.6199 5.47108 42.0288 5.17064 43.4652 4.9801C43.6094 4.96114 43.4633 5.1635 43.6095 5.15425C43.8007 5.14139 44.0165 5.13214 44.2406 5.11773C45.0712 5.06273 46.0181 4.9414 46.3037 4.30138C46.8994 4.20328 47.6171 4.08349 48.1739 4.11817C48.5313 4.14077 48.2388 4.38442 48.6385 4.2247C48.7295 4.18878 48.5754 4.05872 48.7142 4.01659C49.2984 3.83952 49.9571 3.76171 50.5298 3.56795C50.646 3.52822 50.5865 3.39548 50.6156 3.36392C50.8625 3.10589 51.403 3.35086 51.5104 3.35598C52.3335 3.38939 52.896 3.21262 53.6331 3.08591C53.8038 3.05675 53.569 2.90524 53.7322 2.87048C54.5819 2.69224 55.4691 2.55769 56.3206 2.50394C56.51 2.49247 56.3648 2.68036 56.4566 2.68308C56.8607 2.69344 56.8979 2.37754 57.286 2.38278C57.3676 2.38357 57.3445 2.52766 57.3614 2.54041C57.6252 2.74074 57.7691 2.3754 57.8264 2.35892C58.5492 2.14326 59.0732 2.42218 59.7786 2.26868C59.863 2.25002 59.6454 2.10424 59.8842 2.06244C61.4758 1.78288 63.1789 1.60775 64.7821 1.55936C65.0314 1.55162 64.8707 1.70337 64.8882 1.71767C65.1706 1.94003 65.2945 1.58321 65.3736 1.56116C65.9983 1.39609 66.6219 1.61473 67.0106 1.16563C69.7164 1.01753 72.3846 0.559305 75.0863 0.735455C75.1207 0.737285 75.0713 0.908688 75.1397 0.911623C75.963 0.949483 75.7868 0.700755 76.3088 0.347439C76.4409 0.258669 76.8782 0.616419 76.9168 0.642333C77.0567 0.737712 76.9337 0.995133 76.9797 1.01243C77.2672 1.1146 77.2733 0.668825 77.4779 0.433689C77.5428 0.358634 77.6279 0.305095 77.7488 0.297898C77.7645 0.298348 77.7079 0.453705 77.7506 0.466294C77.8835 0.505903 78.0092 0.43818 78.1397 0.482989C78.4389 0.58695 78.5652 0.980907 78.9968 0.723832C79.0516 0.690615 78.9397 0.228062 79.3879 0.226383C79.5677 0.225808 80.353 0.178006 80.5765 0.197876C80.799 0.21748 80.6544 0.37531 80.6705 0.381067C81.2729 0.551988 81.0519 0.645226 81.3625 0.926261C81.6727 1.20644 81.559 0.509888 81.677 0.426307C81.7957 0.342862 82.237 0.488467 82.3465 0.541189C82.4557 0.593864 82.3264 0.695098 82.4228 0.723472C83.0617 0.908874 82.6856 0.364475 82.889 0.244909C83.3678 -0.0377378 83.7712 0.467534 84.22 0.502769C84.3416 0.512297 84.2386 0.397398 84.3462 0.382595C84.7725 0.325683 85.0359 0.479345 85.5175 0.315863C85.5961 0.289185 85.9816 -0.0349268 86.243 0.187402C86.2799 0.219478 86.1811 0.35178 86.3641 0.375804C86.6372 0.411845 87.1296 0.427664 87.421 0.377619C87.6363 0.340578 87.3837 0.132852 87.6573 0.192939C87.779 0.219828 87.5576 0.349693 87.7858 0.389824C88.0128 0.429852 88.5909 0.412648 88.8104 0.404439C89.0297 0.39602 88.9067 0.236319 88.9242 0.225084C89.0304 0.160575 89.4512 0.0753969 89.4885 0.0750666C91.3683 0.025462 93.1028 0.287833 94.9319 0.203281C95.0756 0.196922 94.9805 0.0258349 95.0024 0.0231041C95.4944 -0.0464563 95.105 0.405887 95.4471 0.559477C95.3993 0.212743 95.6015 0.276346 95.948 0.240735C96.115 0.223327 96.0251 0.0885153 96.0405 0.0748865C96.2898 -0.127092 96.4598 0.137698 96.5037 0.191934C96.6656 0.391465 96.8462 0.159216 96.9563 0.292797C97.0663 0.425403 96.808 0.617404 97.1397 0.618549C97.2342 0.495572 96.9913 0.168635 97.2441 0.11898C98.1982 -0.0701452 99.9709 0.217293 100.734 0.263667C101.497 0.308924 101.744 0.293478 102.187 0.351264C102.987 0.456728 102.7 0.207414 103.203 0.113702C103.708 0.0206708 103.444 0.603872 103.511 0.733442C103.577 0.862963 103.659 0.73485 103.744 0.807825C103.829 0.880781 103.637 0.960459 103.841 0.994034C104.045 1.02744 104.615 0.822755 104.694 0.692844C104.859 0.417403 104.617 0.111562 105.158 0.237415C105.189 0.244859 105.081 0.396164 105.2 0.416789C106.148 0.575563 107.136 0.629076 108.081 0.784695C108.211 0.806341 108.085 0.973065 108.16 0.987625C108.945 1.14047 108.678 0.834035 109.131 0.53449C109.009 0.959915 109.234 1.23633 109.834 1.2744C110.194 1.29767 110.144 1.1059 110.385 0.987644C110.458 0.951967 110.705 1.09706 110.757 1.01157C110.928 0.73223 110.707 0.392822 111.32 0.561901C111.346 0.569803 111.249 0.722375 111.343 0.738108C111.946 0.840998 112.039 0.543527 112.699 0.553259C112.809 0.554945 112.937 0.567705 113.075 0.587527C113.588 0.660592 114.241 0.830435 114.701 0.891071C114.651 1.37356 115.21 1.30731 115.463 0.992981C115.842 1.03835 116.253 1.05472 116.616 1.13338C116.741 1.1603 116.646 1.29282 116.66 1.30935C116.883 1.56818 117.077 1.25908 117.16 1.25384C118.06 1.21148 118.758 1.52706 119.629 1.37359C119.659 1.36803 119.743 1.03775 119.944 1.30594C119.957 1.32434 119.662 1.44781 120.059 1.50095C120.456 1.55408 121.186 1.81412 121.755 1.72102C121.893 1.69857 122.262 1.46501 122.509 1.70871C122.542 1.74171 122.491 1.83315 122.537 1.89259C122.686 2.0823 122.817 1.75472 122.982 2.06536C123.146 2.37605 123.53 2.63962 124.109 2.50965C124.128 2.50606 124.292 2.25427 124.466 2.28024C124.744 2.32187 125.133 2.42772 125.424 2.46345C125.564 2.48047 125.496 2.30273 125.52 2.30281C126.47 2.33108 127.117 2.56874 128.11 2.77324C128.293 2.81108 128.852 2.65958 129.182 2.89022C129.544 3.14301 129.025 3.89795 129.947 3.83607C130.318 3.81214 130.932 2.84835 131.5 3.4836C132.779 3.54613 133.896 4.00793 135.186 4.03204C135.244 4.03323 135.472 3.77631 135.605 3.803C135.801 3.84313 135.888 3.99611 136.027 4.02922C136.609 4.17122 137.172 4.15171 137.738 4.27096C137.953 4.3161 137.852 4.44113 138.109 4.49525C138.366 4.54925 138.569 4.39757 138.902 4.54937C139.154 4.66471 139.349 5.08583 139.689 5.19381C139.771 4.82873 140.009 4.88049 140.455 4.86375C140.541 4.8603 140.477 4.71594 140.518 4.70771C140.688 4.67134 140.814 4.80481 140.977 4.76141C141.017 4.75108 141.043 4.62596 141.076 4.61045C141.365 4.47363 141.731 4.83602 141.792 4.89867C142.03 5.13774 142.19 4.99946 142.387 5.11369C142.583 5.2279 142.251 5.25864 142.488 5.35088C142.979 5.54173 143.637 5.64993 144.151 5.75833C144.357 5.80077 144.25 5.60571 144.28 5.60791C144.714 5.65019 145.111 5.91522 145.413 5.62988C145.534 6.54995 145.686 5.59795 146.262 5.89488C146.307 5.91859 146.285 6.33781 146.088 6.35977C145.891 6.38171 145.638 6.19769 145.364 6.23925C145.299 6.24876 144.878 6.56066 144.825 6.5741C144.418 6.68013 144.488 6.06166 144.475 6.02428C144.324 5.61913 143.822 5.94656 143.703 5.95271C143.165 5.98158 142.754 5.81219 142.306 5.82195C142.015 5.82795 141.911 6.22171 141.695 6.16747C140.976 5.98778 140.826 5.38251 140.049 5.73694C139.882 5.81253 139.947 6.27604 139.484 5.83501C139.455 5.8072 139.122 5.42093 138.858 5.57815C138.825 5.598 138.803 5.72548 138.763 5.72932C138.499 5.75262 138.35 5.62077 138.069 5.62012C137.786 5.61935 137.443 5.63279 137.139 5.53437C136.956 5.47527 136.756 5.19524 136.676 5.12124C136.45 4.90895 136.129 5.13626 136.006 4.90613C135.882 4.67471 136.248 4.41869 135.852 4.21483C135.779 4.54355 135.685 4.87758 135.603 5.20661C134.69 5.03803 133.809 4.78118 132.886 4.64759C132.771 4.63143 132.859 4.82862 132.736 4.81593C132.217 4.7618 131.786 4.56337 131.244 4.53152C130.823 4.50737 130.342 4.62795 129.901 4.61106C129.694 4.19092 129.032 4.22557 128.57 4.12406C128.408 4.08864 128.433 3.98849 128.321 3.93874C127.9 3.75379 128.058 4.11964 127.93 4.15565C127.382 4.30957 127.444 3.54107 126.83 3.4768C126.798 3.47305 126.348 3.82652 126.29 3.84472C125.923 3.96397 126.252 3.69554 126.04 3.63686C125.652 3.52987 125.389 3.39691 124.91 3.45712C124.771 3.47518 124.415 3.68802 124.176 3.45932C124.145 3.42934 124.181 3.29713 124.154 3.28582C123.666 3.09242 123.601 3.51403 123.297 3.62268C122.992 3.73134 122.583 3.38725 122.502 3.29259C122.29 3.04728 122.694 3.22058 122.709 3.20079C122.89 2.96411 122.56 2.96974 122.314 2.91972C122.326 2.5005 121.976 2.48571 122.059 2.86962C122.069 2.9116 122.267 2.895 122.314 2.91972C122.05 3.30179 121.664 3.31062 121.285 2.88341C121.107 2.68334 121.317 2.49529 120.708 2.50639C120.432 2.51151 120.507 2.80879 120.258 2.86129C119.691 2.98106 119.007 2.64168 118.436 2.62867C118.229 2.624 118.414 2.80013 118.272 2.80238C117.896 2.80895 117.578 2.6603 117.199 2.68617C117.164 2.68872 117.232 2.86044 117.116 2.85188C116.233 2.79048 115.474 2.6192 114.553 2.54251C114.136 2.50762 113.407 2.53167 112.937 2.49282C112.905 2.49018 112.874 2.48724 112.845 2.48396C112.049 2.39523 111.079 2.09059 110.391 2.10658C109.942 2.11631 110.03 2.28702 109.832 2.38762C109.451 2.58269 108.821 2.15657 108.736 2.09154C108.733 2.08933 109.12 2.07204 108.92 1.97606C108.81 1.79334 108.74 2.09102 108.736 2.09154C108.68 2.0491 107.915 1.97062 107.761 1.99458C107.677 2.00754 107.715 2.1659 107.672 2.16972C106.639 2.25699 105.611 2.25049 104.573 2.13698C104.555 2.13311 104.589 1.9596 104.546 1.95269C103.946 1.85179 103.552 2.05177 103.051 2.162C102.55 2.27231 102.158 2.21814 101.872 1.90987C101.496 1.93673 100.961 1.79012 100.653 1.7023C100.345 1.61443 100.293 1.95359 100.266 1.95966C99.4115 2.15585 98.9245 1.95196 98.0425 1.9084C97.6234 1.88699 96.7906 1.92664 96.3365 1.96032C95.9776 1.98732 95.7616 1.90619 95.4307 1.9554C95.386 1.96198 95.4304 2.11363 95.4167 2.1194C95.0473 2.2988 95.2261 1.9295 95.1502 1.86304C94.8749 1.62155 94.7037 1.49278 94.2305 1.60539C94.1213 1.63116 93.8038 2.16416 93.6054 2.19566C93.3473 2.23564 93.4443 2.04437 93.1741 2.09137C93.151 2.09524 93.1561 2.21305 92.9894 2.20844C92.215 2.18861 91.3698 2.12662 90.5657 2.14839C90.4557 2.15091 90.599 2.33608 90.4402 2.34284C89.6955 2.37442 88.8796 2.38133 88.1522 2.30913C87.973 2.29078 88.0823 2.15755 88.0426 2.11951C87.7991 1.88943 87.4692 2.23886 87.4138 2.24671C86.0894 2.44276 85.0632 2.16429 83.7143 2.36103C83.6403 2.37229 83.0888 2.75986 82.8231 2.45634C82.805 2.43615 82.5409 2.12515 82.3288 2.35407C82.3156 2.36839 82.4784 2.5271 82.2058 2.52178C81.9338 2.51648 81.4997 2.64625 81.1179 2.48213C80.9971 2.43044 80.7017 2.12331 80.3603 2.39611C80.3374 2.41499 79.8234 3.01952 79.6079 2.63172C79.573 2.56788 79.5835 2.14455 79.1731 2.38323C79.0948 2.42947 79.246 2.51551 79.0372 2.58571C78.7184 2.69378 78.2796 2.60533 77.8922 2.81652C77.8553 2.83692 77.7552 2.93686 77.6315 2.9902C77.5282 3.03445 77.4086 3.04668 77.2948 2.95496C77.2554 2.92327 77.3176 2.77831 77.191 2.77031C76.5903 2.73159 75.9703 2.86642 75.3588 2.81093C75.1416 2.79165 75.2356 2.55682 75.0074 2.51165C74.7791 2.46645 74.3244 2.44045 74.0972 2.56178C73.8707 2.68307 74.1532 3.02583 73.8054 3.08113C72.2935 3.32204 70.7713 3.23874 69.2507 3.3548C69.0252 3.37207 69.2242 3.48304 68.8932 3.51807C67.6721 3.64563 65.5836 3.99954 64.494 3.85666C63.6199 3.74108 64.666 3.44308 64.0069 3.43357C63.6884 3.42971 63.4029 3.89139 63.3295 3.91419C62.6109 4.14226 62.0757 4.0252 61.4209 4.17326C61.2859 4.20395 61.4433 4.35482 61.3283 4.37906C60.9364 4.46335 60.5074 4.44722 60.1313 4.51598C59.9624 4.54728 60.0126 4.67197 59.8548 4.6849C59.4771 4.71755 59.1392 4.71265 58.756 4.64729C58.721 4.64135 58.9209 4.44644 58.6429 4.48281C58.1927 4.54225 57.6179 4.51011 57.1225 4.71646C56.9757 4.77822 57.0179 5.07361 56.6563 4.92388C56.5805 4.89273 56.6099 4.52436 56.2775 4.89331C56.2217 4.95453 55.6501 5.47379 55.2897 5.26264C55.1951 5.20693 54.9336 4.95426 54.7578 5.03164C54.7341 5.04322 54.8613 5.18385 54.712 5.22572C54.1835 5.3709 53.6221 5.45372 53.0812 5.60365C52.9373 5.64394 53.1851 5.76725 52.9698 5.82211C52.3763 5.97348 51.6204 6.07301 51.0236 6.13563C50.8041 6.15827 50.9271 5.99447 50.9086 5.98281C50.6094 5.79294 50.5221 6.14473 50.4418 6.17997C49.94 6.39527 49.5159 6.3227 49.0407 6.46058C48.9107 6.49803 49.0356 6.63247 49.012 6.65149C48.7664 6.84066 48.9136 6.52373 48.7344 6.52863C48.2309 6.54182 47.6926 6.66646 47.2053 6.78983C47.0261 6.83546 47.2669 6.97013 47.1056 7.00905C46.3412 7.19667 45.5468 7.36252 44.7645 7.47901C44.5767 7.5069 44.3894 7.53184 44.2034 7.55342C44.0231 7.57403 44.1034 7.41284 44.0597 7.38988C43.7575 7.22843 43.4524 7.60927 43.3743 7.65663C43.0163 7.87309 42.8382 7.7866 42.4999 7.88701C40.8537 8.37778 38.7734 8.77864 37.1869 9.10608C35.1203 9.53331 33.4978 9.79459 31.5554 10.3195C31.432 10.3527 31.6024 10.5016 31.4967 10.5325C30.1287 10.9243 28.755 11.2035 27.3921 11.6192C27.2801 11.653 27.488 11.7804 27.3099 11.8404C26.9461 11.9644 26.4723 12.0808 26.0825 12.1273C25.8928 12.1502 26.0985 11.9382 25.9084 11.9643C25.4682 12.024 24.9981 12.1385 24.5698 12.2851C24.3852 12.3486 24.7168 12.4447 24.4725 12.5138C22.818 12.9866 21.2068 13.4754 19.4819 13.7444C19.3625 13.7632 19.1565 13.442 18.9346 13.582C18.9456 13.6848 18.981 13.7991 19.0043 13.9057C16.7324 14.6484 14.4362 15.2562 12.2268 16.0506C12.1281 16.0863 12.0304 16.1219 11.9336 16.1574C11.834 16.194 12.0736 16.3113 11.8818 16.3829C10.7712 16.798 9.7306 17.2552 8.53177 17.5245C8.41338 17.5515 8.34475 17.2107 8.03791 17.3894C7.97742 17.4236 7.51314 17.6604 7.40736 17.7841C7.3944 17.8015 7.5442 17.9125 7.38769 17.9816C6.4862 18.3768 5.51342 18.7498 4.58955 19.0638C4.43696 19.1158 4.52146 18.8905 4.41261 18.9261C3.65045 19.1758 2.93715 19.6669 2.22464 19.8881C1.74736 20.0384 1.75783 19.6961 1.37919 19.5833C1.3258 19.5671 1.04815 19.7277 0.946798 19.5928C0.690512 19.2539 0.583338 18.7773 0.294475 18.4256C0.228159 18.3527 -0.0715581 18.6559 0.0158746 18.3292C0.02025 18.3084 0.24831 18.0782 0.281105 17.966C0.300464 17.8902 0.125616 17.7957 0.188262 17.6761C0.255983 17.5538 0.43652 17.6132 0.568895 17.442C0.6978 17.2729 0.526877 17.1437 0.864412 16.9326ZM99.2634 1.31261C98.9788 1.14393 98.9257 1.74126 99.2389 1.60395C99.2541 1.59661 99.2781 1.32091 99.2634 1.31261ZM133.886 4.33819C133.558 4.01693 133.24 4.35849 133.47 4.60229C133.699 4.84589 133.985 4.43568 133.886 4.33819ZM137.763 4.80891C137.366 4.52678 137.15 5.34998 137.643 5.26366C137.672 5.25893 137.786 4.82533 137.763 4.80891ZM2.43901 18.9009C2.43128 18.8956 2.22675 18.9942 2.22475 19.0045C2.20701 19.2284 2.61527 19.0312 2.43901 18.9009ZM141.611 5.30848C141.498 5.16987 141.083 5.22583 141.225 5.39799C141.339 5.53646 141.752 5.4808 141.611 5.30848ZM84.2423 0.79416C84.2374 0.785398 84.0703 0.783254 84.0755 0.833502C84.0925 0.995262 84.3229 0.94136 84.2423 0.79416ZM148.071 6.59487C147.129 6.36532 146.687 5.55917 147.712 5.85231C147.897 5.90532 147.262 5.987 147.488 6.09857C147.901 6.30183 148.282 5.93199 148.683 6.25714C148.755 6.31634 148.125 6.60937 148.069 6.59547C148.07 6.59527 148.071 6.59507 148.071 6.59487ZM99.1111 0.591135C99.1054 0.583097 98.8742 0.571441 98.8685 0.579208C98.74 0.766844 99.2055 0.790407 99.1111 0.591135ZM74.4796 0.9424C74.4664 0.926308 73.9277 0.949982 73.9116 0.966905C73.6551 1.29711 74.741 1.25029 74.4796 0.9424ZM114.709 0.904706C114.977 0.734431 115.28 0.736717 115.462 0.992642C115.211 0.958992 114.96 0.936609 114.709 0.904706Z" fill="#4261FF"/>
</svg>
