<svg width="259" height="10" viewBox="0 0 259 10" fill="none" xmlns="http://www.w3.org/2000/svg">
<path d="M2.09088 1.66131C3.52442 1.30157 5.47164 1.15356 6.96587 1.14951C7.43533 1.14719 7.23559 1.44089 7.56431 1.4513C8.18471 1.47471 8.76559 1.27153 9.38196 1.32172C9.59046 1.33922 9.38651 1.78619 9.60407 1.79506C10.789 1.842 11.8766 1.61663 13.0631 1.58766C18.9039 1.45118 24.5656 1.26488 30.3886 1.1702C32.3001 1.13972 34.651 1.41891 36.6251 1.17483C36.8524 1.14605 36.702 0.783182 36.7443 0.751128C37.4106 0.259833 37.2121 1.01207 37.6674 1.09354C39.4815 1.41481 41.4774 1.37961 43.1641 1.1832C43.8966 1.09816 43.1348 0.390101 43.8917 0.777159C43.9444 0.803271 43.7686 1.20032 43.9733 1.23564C44.4501 1.31449 45.2873 1.21895 45.6389 1.23952C46.3148 1.28114 46.4275 1.27392 47.077 1.25965C47.9948 1.24281 48.9809 1.41021 49.9372 1.29622C50.1392 1.27079 49.8602 0.876853 50.1819 0.800094C50.5025 0.723419 51.3753 0.735016 51.6467 0.822836C51.9303 0.91034 51.8186 1.22855 51.8702 1.29955C52.2933 1.89902 53.2528 1.03055 53.381 1.00665C55.6963 0.595034 57.6923 1.03307 59.8204 0.988642C60.6425 0.971009 61.5059 0.913128 62.3727 0.859235C63.1829 0.807135 63.9955 0.758849 64.7717 0.755935C66.6774 0.749917 68.1856 0.94263 70.0262 0.87676C70.2195 0.870299 69.9855 0.402188 70.2219 0.393347C72.6668 0.300907 75.175 0.317338 77.6067 0.604498C77.8543 0.633667 77.541 1.05184 77.7887 1.10574C79.326 1.42619 81.6977 2.2155 82.579 0.402393C83.6026 0.461002 84.8754 0.519684 85.7716 0.873572C86.3595 1.10123 85.795 1.55838 86.5137 1.35826C86.676 1.31366 86.46 0.920831 86.704 0.883823C87.729 0.728407 88.8767 0.845204 89.899 0.631055C90.1035 0.586602 90.0441 0.233161 90.1016 0.168849C90.5844 -0.352173 91.4109 0.493401 91.5907 0.553731C92.9534 1.00333 93.9762 0.812079 95.244 0.812245C95.5361 0.812511 95.1866 0.340035 95.4677 0.323214C96.9258 0.24235 98.4563 0.270503 99.921 0.469879C100.247 0.515373 99.9508 0.922781 100.107 0.965247C100.776 1.14772 100.919 0.381556 101.565 0.541883C101.701 0.574703 101.627 0.922033 101.652 0.959924C102.045 1.55474 102.377 0.705156 102.477 0.6857C103.743 0.420658 104.577 1.2989 105.806 1.165C105.952 1.14811 105.621 0.711676 106.029 0.691017C108.749 0.550806 111.695 0.652457 114.402 0.987437C114.827 1.03891 114.526 1.37028 114.553 1.41075C114.991 2.04302 115.269 1.19079 115.408 1.15795C116.507 0.920991 117.522 1.62869 118.251 0.611563C122.861 0.93798 127.481 0.347378 132.025 1.23635C132.083 1.24663 131.98 1.66597 132.097 1.68467C133.497 1.91418 133.226 1.26421 134.154 0.464238C134.389 0.263351 135.101 1.22199 135.162 1.29223C135.389 1.55104 135.157 2.17519 135.233 2.22519C135.862 2.6177 135.752 0.556976 136.602 0.553124C136.628 0.556461 136.518 0.936251 136.589 0.973704C136.812 1.0913 137.031 0.939734 137.249 1.06952C137.748 1.36988 137.928 2.37074 138.689 1.78513C138.786 1.70914 138.633 0.540507 139.398 0.593036C139.701 0.614964 141.064 0.590229 141.43 0.66478C141.804 0.739199 141.549 1.11682 141.576 1.13304C142.585 1.62787 142.204 1.83563 142.712 2.57154C143.22 3.30468 143.075 1.55259 143.28 1.35631C143.487 1.16058 144.231 1.56925 144.414 1.71157C144.598 1.85395 144.37 2.09407 144.533 2.17445C145.613 2.69962 145.004 1.30307 145.359 1.02381C146.194 0.362594 146.862 1.6603 147.623 1.78541C147.829 1.8192 147.66 1.52368 147.843 1.49546C148.569 1.38762 149.007 1.79191 149.836 1.41774C149.972 1.35676 150.641 0.573479 151.078 1.14575C151.14 1.22828 150.966 1.55264 151.278 1.62434C151.744 1.73195 152.586 1.80051 153.089 1.69094C153.46 1.60988 153.033 1.0773 153.501 1.24188C153.709 1.31537 153.325 1.62857 153.715 1.7406C154.098 1.85261 155.08 1.83643 155.454 1.82473C155.828 1.8128 155.623 1.40847 155.653 1.38113C155.835 1.22445 156.553 1.02751 156.616 1.02784C159.837 0.970726 162.77 1.64686 165.908 1.41498C166.154 1.39737 165.989 0.970792 166.027 0.963705C166.87 0.783244 166.207 1.91951 166.797 2.29831C166.711 1.43218 167.055 1.58838 167.643 1.4923C167.926 1.44529 167.771 1.11014 167.797 1.07576C168.216 0.565504 168.511 1.22305 168.586 1.35753C168.866 1.85223 169.169 1.26658 169.359 1.59725C169.55 1.92544 169.113 2.41324 169.679 2.40602C169.838 2.09564 169.416 1.28598 169.846 1.1539C171.467 0.654237 174.509 1.28524 175.805 1.34941C177.105 1.41349 177.527 1.35569 178.287 1.46671C179.663 1.66746 179.158 1.0669 180.013 0.79055C180.867 0.514253 180.452 1.99417 180.576 2.31203C180.696 2.62975 180.826 2.30236 180.976 2.47692C181.125 2.65143 180.803 2.86808 181.153 2.93323C181.503 2.99832 182.461 2.4316 182.585 2.09892C182.847 1.39412 182.413 0.655249 183.343 0.913927C183.396 0.929281 183.223 1.31848 183.428 1.35755C185.051 1.65507 186.763 1.67174 188.373 1.93494C188.596 1.97174 188.397 2.40469 188.527 2.431C189.878 2.70642 189.395 1.97725 190.135 1.16597C189.97 2.24481 190.38 2.90434 191.409 2.90974C192.027 2.91337 191.921 2.44236 192.321 2.10995C192.441 2.00975 192.879 2.33284 192.959 2.11121C193.22 1.38674 192.806 0.576353 193.87 0.898257C193.917 0.913559 193.769 1.31013 193.93 1.334C194.965 1.49026 195.088 0.732612 196.208 0.63997C197.086 0.567278 198.651 1.02804 199.656 1.10247C199.636 2.31523 200.585 2.03686 200.97 1.20044C201.617 1.23423 202.317 1.18651 202.945 1.30169C203.161 1.34096 203.019 1.69218 203.046 1.7301C203.464 2.32499 203.746 1.51132 203.886 1.47934C205.406 1.16841 206.648 1.78429 208.103 1.18098C208.155 1.15925 208.237 0.316794 208.625 0.931692C208.65 0.974079 208.172 1.3576 208.853 1.3869C209.533 1.41627 210.819 1.86726 211.767 1.47649C211.996 1.38241 212.577 0.698297 213.043 1.23242C213.106 1.30495 213.038 1.54659 213.127 1.68099C213.418 2.10927 213.576 1.25774 213.917 1.98097C214.257 2.70417 214.971 3.24561 215.922 2.7462C215.953 2.73168 216.178 2.05673 216.478 2.0673C216.957 2.08474 217.638 2.22511 218.139 2.22055C218.379 2.21813 218.225 1.79911 218.267 1.79143C219.879 1.5561 221.033 1.92936 222.761 2.09106C223.077 2.12153 223.985 1.54986 224.598 2.00152C225.271 2.49594 224.58 4.55342 226.128 4.06295C226.752 3.86677 227.543 1.25652 228.667 2.60862C230.845 2.27315 232.851 2.96499 235.037 2.48628C235.135 2.46507 235.446 1.73658 235.677 1.74647C236.02 1.76257 236.208 2.10302 236.453 2.12543C237.477 2.22789 238.413 1.93651 239.401 1.98175C239.776 1.99819 239.645 2.35024 240.092 2.36989C240.539 2.38921 240.837 1.92562 241.443 2.14947C241.901 2.32011 242.359 3.26761 242.968 3.37803C242.99 2.44339 243.41 2.46262 244.15 2.21587C244.293 2.168 244.14 1.8427 244.207 1.80328C244.481 1.6356 244.735 1.9052 244.995 1.72268C245.059 1.67885 245.062 1.35966 245.113 1.30581C245.553 0.835735 246.279 1.55369 246.403 1.67869C246.881 2.15344 247.104 1.7383 247.471 1.92525C247.837 2.11217 247.29 2.34587 247.717 2.4593C248.603 2.69391 249.742 2.64234 250.643 2.657C251.002 2.66088 250.757 2.23482 250.809 2.22548C251.552 2.11741 252.301 2.57062 252.712 1.72193C253.227 3.91631 253.159 1.50908 254.22 1.94836C254.304 1.98389 254.41 3.0216 254.089 3.17394C253.769 3.32615 253.282 3.00178 252.837 3.23926C252.732 3.29499 252.128 4.26739 252.046 4.32629C251.401 4.78665 251.31 3.23594 251.276 3.15077C250.889 2.23162 250.149 3.2792 249.955 3.35159C249.065 3.68328 248.309 3.46521 247.565 3.70197C247.079 3.85499 247.031 4.87077 246.65 4.83969C245.38 4.73695 244.938 3.31996 243.743 4.54865C243.486 4.8107 243.741 5.9209 242.821 5.04795C242.763 4.99292 242.08 4.19433 241.685 4.6995C241.636 4.7632 241.637 5.08675 241.572 5.11393C241.134 5.28977 240.842 5.03203 240.365 5.15551C239.888 5.27899 239.315 5.46307 238.771 5.35337C238.443 5.28777 238.023 4.68498 237.866 4.5374C237.423 4.11228 236.948 4.80941 236.674 4.29459C236.397 3.77718 236.939 2.99132 236.212 2.65706C236.185 3.49768 236.123 4.3605 236.08 5.2059C234.485 5.17645 232.917 4.90481 231.322 4.94218C231.124 4.94765 231.326 5.39954 231.114 5.41706C230.219 5.48899 229.441 5.16695 228.509 5.29541C227.788 5.39657 226.999 5.8752 226.247 5.9959C225.787 5.03409 224.672 5.36087 223.863 5.27316C223.58 5.24285 223.599 4.98594 223.397 4.90218C222.637 4.59239 222.993 5.44233 222.785 5.57615C221.893 6.1473 221.811 4.22332 220.754 4.27115C220.698 4.27303 220.013 5.2988 219.919 5.36269C219.32 5.77933 219.82 5.00576 219.445 4.9301C218.76 4.79183 218.285 4.54705 217.483 4.84771C217.25 4.93676 216.689 5.57618 216.236 5.0819C216.176 5.01718 216.209 4.67818 216.161 4.65834C215.291 4.32774 215.272 5.39289 214.772 5.75382C214.272 6.11467 213.502 5.37969 213.345 5.16783C212.935 4.61978 213.659 4.93342 213.681 4.87961C213.942 4.23928 213.38 4.34973 212.951 4.2958C212.888 3.25144 212.289 3.31438 212.506 4.24411C212.531 4.34566 212.865 4.24813 212.951 4.2958C212.575 5.32065 211.916 5.45216 211.188 4.49492C210.848 4.04629 211.169 3.52286 210.136 3.71477C209.668 3.8014 209.849 4.52043 209.436 4.71668C208.494 5.16446 207.262 4.49428 206.284 4.60051C205.929 4.63908 206.275 5.03252 206.032 5.07245C205.389 5.17963 204.822 4.8846 204.178 5.03628C204.119 5.05052 204.262 5.4625 204.062 5.46787C202.54 5.51664 201.23 5.25356 199.632 5.24737C198.863 5.24456 197.491 5.47284 196.698 5.42778C195.322 5.35209 193.636 4.75433 192.452 4.90096C191.683 4.99484 191.852 5.40683 191.523 5.68795C190.888 6.23286 189.765 5.25894 189.614 5.10812C189.609 5.10313 190.269 5.00532 189.916 4.7941C189.711 4.35347 189.621 5.1062 189.614 5.10812C189.514 5.01068 188.198 4.91845 187.938 4.99752C187.796 5.04072 187.876 5.43112 187.802 5.44627C186.043 5.79755 184.262 5.89882 182.479 5.71843C182.448 5.71058 182.495 5.27374 182.421 5.26074C181.386 5.06781 180.732 5.60297 179.875 5.92134C179.017 6.23956 178.338 6.1343 177.831 5.38518C177.186 5.48049 176.261 5.15033 175.73 4.94998C175.199 4.74963 175.127 5.59997 175.08 5.61684C173.63 6.15703 172.779 5.67172 171.26 5.5985C170.539 5.56223 169.111 5.68803 168.335 5.78241C167.721 5.85842 167.352 5.65985 166.788 5.78831C166.711 5.80547 166.789 6.18389 166.766 6.19851C166.129 6.65263 166.434 5.7266 166.302 5.56156C165.824 4.96141 165.529 4.64185 164.716 4.9262C164.528 4.99133 163.985 6.32494 163.644 6.40357C163.201 6.50334 163.367 6.02537 162.903 6.14202C162.864 6.15156 162.872 6.44621 162.586 6.43381C161.259 6.38013 159.817 6.21182 158.424 6.24455C158.235 6.24789 158.479 6.71471 158.205 6.72723C156.921 6.78559 155.52 6.77168 154.28 6.55605C153.975 6.50151 154.165 6.17378 154.099 6.07678C153.694 5.48988 153.108 6.34564 153.013 6.36216C150.714 6.77869 148.981 6.01044 146.655 6.38547C146.527 6.40745 145.549 7.32619 145.111 6.54216C145.081 6.49 144.647 5.68781 144.268 6.23841C144.245 6.27285 144.514 6.68567 144.046 6.645C143.578 6.60442 142.827 6.88309 142.185 6.4307C141.982 6.2882 141.502 5.48823 140.9 6.12924C140.859 6.17397 139.919 7.62197 139.58 6.62635C139.525 6.46246 139.578 5.40741 138.852 5.95082C138.714 6.05617 138.966 6.29055 138.601 6.43878C138.041 6.66722 137.299 6.3874 136.616 6.85986C136.497 6.94349 135.992 7.66136 135.583 7.1195C135.519 7.03463 135.639 6.68201 135.424 6.64342C134.409 6.45825 133.308 6.69817 132.266 6.45878C131.895 6.37468 132.082 5.80459 131.696 5.65362C131.31 5.5027 130.534 5.35925 130.134 5.62114C129.734 5.88313 130.176 6.78858 129.576 6.86378C126.947 7.19051 124.346 6.6704 121.721 6.6059C121.329 6.59627 121.655 6.91928 121.079 6.92841C118.958 6.96333 115.321 7.28812 113.477 6.60949C112.009 6.06581 113.849 5.63395 112.729 5.41589C112.189 5.31192 111.615 6.37042 111.486 6.40445C110.21 6.74982 109.302 6.28843 108.156 6.43948C107.919 6.47083 108.155 6.89681 107.953 6.91877C107.264 6.99756 106.542 6.81169 105.89 6.85118C105.597 6.86989 105.656 7.19603 105.38 7.17279C104.72 7.12094 104.138 6.98788 103.499 6.68653C103.441 6.65907 103.829 6.24997 103.345 6.23843C102.563 6.22093 101.595 5.92633 100.71 6.24507C100.444 6.34095 100.451 7.08724 99.8658 6.57645C99.7436 6.46977 99.8907 5.57237 99.2233 6.3521C99.1104 6.48167 97.9913 7.53526 97.4371 6.86667C97.2906 6.6907 96.9147 5.96049 96.597 6.07845C96.554 6.09721 96.7305 6.4966 96.4668 6.53795C95.5394 6.67671 94.5689 6.64246 93.594 6.77688C93.3359 6.81355 93.7244 7.22486 93.3398 7.26627C92.2821 7.38075 90.9736 7.28751 89.9592 7.16762C89.5852 7.12264 89.84 6.77648 89.8124 6.73936C89.3607 6.13552 89.1002 6.95917 88.9526 7.00852C88.0302 7.30444 87.3274 6.92601 86.4883 7.03693C86.257 7.0665 86.4254 7.4562 86.3796 7.49159C85.9056 7.8377 86.2538 7.13095 85.951 7.05668C85.1108 6.84622 84.1516 6.88822 83.2818 6.94812C82.9634 6.97069 83.3265 7.4205 83.0409 7.43551C81.351 7.53299 79.6349 7.51023 77.9655 7.28133C77.6552 7.23736 77.8456 6.88537 77.78 6.80638C77.3278 6.25359 76.6911 7.02385 76.5441 7.09838C75.8705 7.43869 75.6236 7.13291 75.0105 7.19898C72.0453 7.52658 68.4414 7.37706 65.6704 7.29883C64.5268 7.26771 63.4837 7.21914 62.4916 7.17173C60.2075 7.06959 58.1843 6.97233 55.813 7.08506C55.5974 7.09498 55.8254 7.55492 55.6398 7.56944C53.2067 7.73678 50.7969 7.61514 48.3873 7.81644C48.1919 7.83208 48.4859 8.26485 48.1732 8.30477C47.5149 8.39022 46.6609 8.39089 46.0001 8.26981C45.6765 8.21163 46.0963 7.82067 45.7711 7.76984C45.0274 7.65024 44.191 7.64473 43.4105 7.74054C43.0793 7.78226 43.5946 8.21669 43.1637 8.23582C40.2277 8.37586 37.3682 8.55793 34.3646 8.10198C34.1606 8.07061 33.9534 7.16235 33.5278 7.35692C33.5056 7.61243 33.5206 7.91117 33.518 8.18334C29.2341 8.51937 25.0133 8.42505 20.7712 8.67991C20.5889 8.69109 20.9379 9.15261 20.5864 9.1767C18.5869 9.31501 16.6687 9.60673 14.5862 9.32199C14.3777 9.29483 14.3953 8.43446 13.8138 8.62183C13.7179 8.65456 12.8229 8.86054 12.614 9.06975C12.586 9.10087 12.7891 9.48012 12.5055 9.52201C10.8391 9.76069 9.10288 9.87938 7.40131 9.86791C7.12579 9.86545 7.35523 9.40522 7.15851 9.39989C5.76895 9.36435 4.34159 9.90825 2.97486 9.73585C2.05861 9.61932 2.26496 8.84338 1.68356 8.20531C1.60223 8.11515 1.05204 8.18784 0.956864 7.77754C0.71517 6.74611 0.795077 5.56088 0.506191 4.46655C0.444066 4.2308 -0.246049 4.60745 0.0934549 3.95842C0.117245 3.91479 0.617783 3.63654 0.718021 3.41889C0.787661 3.26833 0.554539 2.87304 0.713147 2.6691C0.871368 2.46541 1.13307 2.78609 1.41219 2.53191C1.69268 2.27509 1.47438 1.81719 2.09088 1.66131ZM173.342 4.05459C172.846 3.64707 172.775 5.14266 173.311 4.78401C173.336 4.7649 173.368 4.07458 173.342 4.05459ZM232.927 3.77681C232.283 3.11728 231.843 4.08723 232.297 4.59659C232.751 5.1054 233.123 3.97673 232.927 3.77681ZM239.605 3.2946C238.852 2.77458 238.734 4.89523 239.54 4.46648C239.587 4.44225 239.649 3.3248 239.605 3.2946ZM3.81863 7.65833C3.80852 7.63972 3.41587 7.68129 3.41002 7.7022C3.27647 8.20371 4.05971 8.12049 3.81863 7.65833ZM246.231 2.77C245.996 2.48315 245.32 2.81432 245.612 3.17102C245.847 3.45798 246.524 3.12683 246.231 2.77ZM147.645 2.51533C147.638 2.49307 147.354 2.47384 147.36 2.59979C147.381 3.00545 147.775 2.88978 147.645 2.51533ZM257.494 2.74547C255.829 2.66565 254.82 0.913901 256.633 1.11157C256.961 1.14733 255.925 1.67019 256.343 1.82812C257.107 2.11584 257.615 1.01596 258.396 1.60534C258.537 1.71322 257.589 2.75392 257.491 2.74791C257.492 2.7471 257.493 2.74629 257.494 2.74547ZM173.054 2.25879C173.044 2.23903 172.647 2.22092 172.637 2.24054C172.423 2.71565 173.223 2.75242 173.054 2.25879ZM130.969 1.64968C130.947 1.60762 130.033 1.57209 130.004 1.61105C129.53 2.38945 131.378 2.46358 130.969 1.64968ZM199.672 1.1348C200.104 0.656876 200.622 0.600286 200.968 1.19983C200.537 1.16828 200.104 1.16389 199.672 1.1348Z" fill="#4261FF"/>
</svg>
